<?xml version="1.0" standalone="no"?>
<!DOCTYPE svg PUBLIC "-//W3C//DTD SVG 20010904//EN"
 "http://www.w3.org/TR/2001/REC-SVG-20010904/DTD/svg10.dtd">
<svg version="1.0" xmlns="http://www.w3.org/2000/svg"
 width="240" height="240" viewBox="0 0 349.000000 258.000000"
 preserveAspectRatio="xMidYMid meet">

<g transform="translate(0.000000,258.000000) scale(0.100000,-0.100000)" 
fill="#FFFFFF" stroke="none">
<path d="M1231 2314 c-283 -140 -517 -256 -520 -259 -9 -9 83 -186 95 -183 7
2 223 106 481 231 l469 228 478 -230 c263 -127 479 -231 480 -231 5 0 89 180
85 184 -4 4 -1051 517 -1053 516 -1 -1 -232 -115 -515 -256z"/>
<path d="M1612 2120 c-260 -37 -474 -183 -577 -395 -52 -108 -68 -189 -69
-350 -1 -118 3 -153 22 -219 45 -156 135 -292 267 -405 193 -164 531 -210 785
-108 180 73 328 213 410 388 16 35 32 79 36 97 l7 32 -118 0 -117 0 6 33 c4
17 9 50 13 71 l6 39 -422 -6 c-233 -3 -425 -8 -428 -11 -9 -9 28 -104 57 -145
61 -84 180 -123 309 -101 83 14 180 58 208 94 20 25 24 26 133 26 l112 0 -7
-27 c-31 -128 -192 -255 -375 -298 -103 -24 -237 -20 -314 9 -211 80 -344 256
-362 482 -21 273 162 518 441 589 213 54 428 -25 549 -203 43 -63 106 -213
106 -254 0 -16 12 -18 115 -18 l115 0 -6 28 c-49 217 -111 332 -245 456 -83
77 -227 153 -340 180 -83 20 -235 27 -317 16z"/>
<path d="M2800 1951 c-11 -22 -20 -42 -20 -45 0 -2 26 -6 59 -8 l59 -3 -31 43
c-18 24 -35 46 -39 48 -4 3 -16 -13 -28 -35z"/>
<path d="M653 1926 l-31 -44 57 -5 c31 -2 57 -3 59 -2 5 4 -41 95 -48 95 -3 0
-20 -20 -37 -44z"/>
<path d="M1624 1669 c-69 -26 -124 -76 -162 -147 -18 -33 -32 -65 -32 -71 0
-8 90 -11 310 -11 358 0 340 -7 270 98 -87 129 -248 184 -386 131z"/>

</g>
</svg>
